{"title":"DIL TU HI BTA (KRRISH 3) 4K MASTERED [PhYsIcIaN].mp4","uid":11192062,"size":885275302,"categoryP":"video","categoryS":"other","magnet":"?xt=urn:btih:3ca6104f13070e154a37c103ad18fd9f6d6cfbce&amp;dn=DIL+TU+HI+BTA+%28KRRISH+3%29+4K+MASTERED+%5BPhYsIcIaN%5D.mp4&amp;tr=udp%3A%2F%2Ftracker.openbittorrent.com%3A80&amp;tr=udp%3A%2F%2Fopen.demonii.com%3A1337&amp;tr=udp%3A%2F%2Ftracker.coppersurfer.tk%3A6969&amp;tr=udp%3A%2F%2Fexodus.desync.com%3A6969","seeders":0,"leechers":1,"uploader":null,"files":1,"time":1413011037,"description":"General\nComplete name                            : D:SONGSVIDEOTRUE HD4KDIL TU HI BTA (KRRISH 3) 4K MASTERED [PhYsIcIaN].mp4\nFormat                                   : MPEG-4\nFormat profile                           : Base Media / Version 2\nCodec ID                                 : mp42\nFile size                                : 844 MiB\nDuration                                 : 5mn 9s\nOverall bit rate mode                    : Variable\nOverall bit rate                         : 22.9 Mbps\nEncoded date                             : UTC 2014-10-09 19:14:58\nTagged date                              : UTC 2014-10-09 19:15:48\nÂ©TIM                                     : 00:00:00:00\nÂ©TSC                                     : 24\nÂ©TSZ                                     : 1\n\nVideo\nID                                       : 1\nFormat                                   : AVC\nFormat/Info                              : Advanced Video Codec\nFormat profile                           : &lt;a class=&quot;__cf_email__&quot; href=&quot;/cdn-cgi/l/email-protection&quot; data-cfemail=&quot;88c5e9e1e6c8c4bda6b9&quot;&gt;[email&amp;#160;protected]&lt;/a&gt;&lt;script cf-hash='f9e31' type=&quot;text/javascript&quot;&gt;\n/* &lt;![CDATA[ */!function(){try{var t=&quot;currentScript&quot;in document?document.currentScript:function(){for(var t=document.getElementsByTagName(&quot;script&quot;),e=t.length;e--;)if(t[e].getAttribute(&quot;cf-hash&quot;))return t[e]}();if(t&amp;&amp;t.previousSibling){var e,r,n,i,c=t.previousSibling,a=c.getAttribute(&quot;data-cfemail&quot;);if(a){for(e=&quot;&quot;,r=parseInt(a.substr(0,2),16),n=2;a.length-n;n+=2)i=parseInt(a.substr(n,2),16)^r,e+=String.fromCharCode(i);e=document.createTextNode(e),c.parentNode.replaceChild(e,c)}}}catch(u){}}();/* ]]&gt; */&lt;/script&gt;\nFormat settings, CABAC                   : Yes\nFormat settings, ReFrames                : 3 frames\nCodec ID                                 : avc1\nCodec ID/Info                            : Advanced Video Coding\nDuration                                 : 5mn 9s\nBit rate mode                            : Variable\nBit rate                                 : 22.4 Mbps\nMaximum bit rate                         : 25.0 Mbps\nWidth                                    : 3 840 pixels\nHeight                                   : 2 160 pixels\nDisplay aspect ratio                     : 16:9\nFrame rate mode                          : Constant\nFrame rate                               : 24.000 fps\nStandard                                 : NTSC\nColor space                              : YUV\nChroma subsampling                       : 4:2:0\nBit depth                                : 8 bits\nScan type                                : Progressive\nBits/(Pixel*Frame)                       : 0.112\nStream size                              : 825 MiB (98%)\nLanguage                                 : English\nEncoded date                             : UTC 2014-10-09 19:14:58\nTagged date                              : UTC 2014-10-09 19:14:58\n\nAudio\nID                                       : 2\nFormat                                   : AAC\nFormat/Info                              : Advanced Audio Codec\nFormat profile                           : LC\nCodec ID                                 : 40\nDuration                                 : 5mn 9s\nSource duration                          : 5mn 9s\nBit rate mode                            : Variable\nBit rate                                 : 509 Kbps\nMaximum bit rate                         : 643 Kbps\nChannel(s)                               : 6 channels\nChannel positions                        : Front: L C R, Side: L R, LFE\nSampling rate                            : 48.0 KHz\nCompression mode                         : Lossy\nStream size                              : 18.8 MiB (2%)\nSource stream size                       : 18.8 MiB (2%)\nLanguage                                 : English\nEncoded date                             : UTC 2014-10-09 19:14:58\nTagged date                              : UTC 2014-10-09 19:14:58\n\n","torrent":{"xt":"urn:btih:3ca6104f13070e154a37c103ad18fd9f6d6cfbce","amp;dn":"DIL+TU+HI+BTA+%28KRRISH+3%29+4K+MASTERED+%5BPhYsIcIaN%5D.mp4","amp;tr":["udp%3A%2F%2Ftracker.openbittorrent.com%3A80","udp%3A%2F%2Fopen.demonii.com%3A1337","udp%3A%2F%2Ftracker.coppersurfer.tk%3A6969","udp%3A%2F%2Fexodus.desync.com%3A6969"],"infoHash":"3ca6104f13070e154a37c103ad18fd9f6d6cfbce","infoHashBuffer":{"type":"Buffer","data":[60,166,16,79,19,7,14,21,74,55,193,3,173,24,253,159,109,108,251,206]},"announce":[],"urlList":[]}}